<?xml version="1.0" standalone="no"?>
<!DOCTYPE svg PUBLIC "-//W3C//DTD SVG 20010904//EN"
 "http://www.w3.org/TR/2001/REC-SVG-20010904/DTD/svg10.dtd">
<svg version="1.0" xmlns="http://www.w3.org/2000/svg"
 width="646.000000pt" height="648.000000pt" viewBox="0 0 646.000000 648.000000"
 preserveAspectRatio="xMidYMid meet">

<g transform="translate(0.000000,648.000000) scale(0.100000,-0.100000)"
fill="#000000" stroke="none">
<path d="M0 3240 l0 -3240 3230 0 3230 0 0 3240 0 3240 -3230 0 -3230 0 0
-3240z m3050 338 l0 -188 -187 0 -188 0 -457 457 -458 458 187 187 188 188
457 -457 458 -458 0 -187z m1143 270 l-458 -458 -187 0 -188 0 0 187 0 188
457 457 458 458 187 -187 188 -188 -457 -457z m-1143 -955 l0 -188 -457 -457
-458 -458 -187 187 -188 188 457 457 458 458 187 0 188 0 0 -187z m1142 -270
l458 -458 -187 -187 -188 -188 -457 457 -458 458 0 187 0 188 187 0 188 0 457
-457z"/>
</g>
</svg>
